<?xml version="1.0" standalone="no"?><!DOCTYPE svg PUBLIC "-//W3C//DTD SVG 1.1//EN" "http://www.w3.org/Graphics/SVG/1.1/DTD/svg11.dtd"><svg t="1578378046186" class="icon" viewBox="0 0 1194 1024" version="1.1" xmlns="http://www.w3.org/2000/svg" p-id="4205" xmlns:xlink="http://www.w3.org/1999/xlink" width="233.203125" height="200"><defs><style type="text/css"></style></defs><path d="M928.850569 520.653689c108.238916 448.864188-278.478409 450.778087-278.478409 450.778087C1151.533335 659.502799 422.557219 244.13794 422.557219 244.13794c176.090904-10.130256 219.098776-90.34335 184.928973-141.482246C570.805158 47.835286 382.170291 173.348056 382.170291 173.348056S468.186035 24.356499 377.172211 1.584757C286.109625-21.174794 253.146675 208.736903 253.146675 208.736903c-103.691882-10.361874-177.63909 18.83423-217.904113 41.593781l55.198312-76.153679-42.422731-6.436552-14.811385 83.784894C11.471204 264.044928 0 274.406802 0 274.406802c11.227395 3.218276 21.979363 7.033884 32.134 11.446823l9.679209 86.405839 49.700423-7.862834-55.320216-76.75101c138.946634 61.256961 178.955658 214.064125 178.955658 214.064125-72.740355 2.730659-94.841622 59.830679-101.546364 92.720486-1.304377 6.436552 6.826646 10.483778 11.239585 5.607602 30.707718-33.974756 102.862932-94.158958 130.218279 53.150318C290.181232 842.603207 423.9835 891.828203 423.9835 891.828203s-90.197065-236.360439 0.963045-286.292481c66.77923-36.595701 99.632465 30.622385 99.632465 30.622385-202.141875-88.075928-56.990307 306.796801-56.990306 306.796801C164.863509 831.144193 203.702251 986.450397 203.702251 986.450397h322.071422l16.493665 6.314648c51.248609 19.66318 105.605781 31.463525 160.450571 31.231907 234.629397-1.316568 344.660308-190.231815 271.663953-529.918422C890.987063 105.873971 1194.663111 122.916206 1194.663111 122.916206S820.733557 71.801691 928.850569 520.653689zM232.837402 301.591483a27.184681 27.184681 0 0 1-27.233442-27.184681c0-15.018622 12.19044-27.172491 27.233442-27.17249a27.184681 27.184681 0 0 1 27.245633 27.184681c0 15.006432-12.19044 27.172491-27.245633 27.17249z" p-id="4206" fill="#ffffff"></path></svg>